<?xml version="1.0" standalone="no"?>
<!DOCTYPE svg PUBLIC "-//W3C//DTD SVG 20010904//EN"
 "http://www.w3.org/TR/2001/REC-SVG-20010904/DTD/svg10.dtd">
<svg version="1.0" xmlns="http://www.w3.org/2000/svg"
 width="161.000000pt" height="59.000000pt" viewBox="0 0 161.000000 59.000000"
 preserveAspectRatio="xMidYMid meet">
<metadata>
Created by potrace 1.10, written by Peter Selinger 2001-2011
</metadata>
<g transform="translate(0.000000,59.000000) scale(0.050000,-0.050000)"
fill="#0000ff" stroke="none">
<path d="M270 1104 c-99 -46 -198 -156 -230 -255 -23 -67 -19 -317 4 -340 5
-5 141 124 302 286 188 189 286 301 273 314 -38 38 -264 35 -349 -5z"/>
<path d="M530 785 l-120 -7 -163 -162 c-155 -154 -162 -164 -135 -206 78 -120
102 -111 339 130 208 211 253 265 216 256 -9 -2 -71 -7 -137 -11z"/>
<path d="M2310 790 c-11 -3 -44 -12 -73 -18 -205 -45 -304 -378 -144 -482 88
-58 290 -42 316 24 18 47 4 50 -61 16 -123 -64 -208 -14 -208 123 0 195 139
333 264 261 50 -29 66 -31 79 -10 27 44 20 53 -58 75 -78 22 -82 22 -115 11z"/>
<path d="M2608 772 c-146 -64 -151 -221 -8 -305 71 -42 80 -115 19 -147 -49
-27 -119 -8 -119 31 0 39 -33 37 -48 -3 -23 -59 -12 -83 40 -93 217 -42 365
203 190 314 -102 64 -113 85 -71 132 43 48 76 49 119 6 28 -28 36 -29 52 -5
49 78 -57 120 -174 70z"/>
<path d="M1014 575 c-19 -113 -40 -230 -47 -260 l-12 -55 141 0 c101 0 143 8
150 28 17 43 -5 53 -91 39 l-78 -13 14 78 c19 107 21 108 110 108 44 0 79 9
79 20 0 11 0 26 0 34 0 8 -37 12 -82 9 -89 -7 -85 -17 -46 119 10 37 23 41 89
32 60 -8 79 -3 86 23 7 28 9 29 11 1 1 -23 18 -29 62 -22 74 11 76 -11 20
-265 -22 -98 -40 -182 -40 -185 0 -3 27 -6 60 -6 63 0 65 3 90 170 40 272 49
293 116 286 48 -4 65 3 70 29 6 32 -20 35 -331 35 l-337 0 -34 -205z"/>
<path d="M1751 735 c-5 -25 -23 -129 -41 -232 -18 -103 -38 -200 -44 -216 -9
-24 14 -28 136 -23 123 5 149 12 154 41 6 31 -3 34 -74 23 -77 -12 -82 -10
-82 34 1 111 20 138 100 138 49 0 80 11 87 30 9 24 -5 30 -68 30 -84 0 -93 16
-66 116 11 41 23 46 94 40 65 -5 84 1 89 29 6 31 -10 35 -134 35 -130 0 -142
-3 -151 -45z"/>
<path d="M2958 635 c-46 -80 -113 -194 -150 -255 -56 -93 -61 -111 -33 -117
19 -4 36 0 39 10 57 168 231 214 256 67 12 -73 19 -80 74 -80 52 0 59 6 51 45
-5 25 -25 131 -45 235 -19 105 -38 201 -42 215 -16 60 -72 15 -150 -120z m82
-120 c0 -48 -8 -55 -60 -55 l-61 0 43 83 c45 90 77 79 78 -28z"/>
<path d="M413 423 c-153 -154 -150 -163 39 -163 136 0 239 50 336 163 106 124
99 137 -84 137 l-155 0 -136 -137z"/>
<path d="M10 180 c-8 -13 520 -20 1569 -20 869 0 1588 -1 1596 -2 7 0 17 9 21
20 10 30 -3168 31 -3186 2z"/>
<path d="M97 78 c-11 -54 53 -75 88 -28 8 12 15 9 15 -8 0 -22 9 -20 40 8 37
34 40 34 40 2 0 -19 7 -30 16 -24 9 5 29 1 44 -8 21 -13 35 -3 53 36 23 52 25
53 37 11 18 -58 150 -61 135 -3 -12 46 -37 46 -54 1 -13 -33 -16 -33 -42 3
-28 38 -149 61 -149 29 0 -9 9 -17 20 -17 11 0 20 -10 20 -21 0 -12 -24 -3
-53 20 -34 27 -61 35 -73 23 -10 -10 -31 -14 -46 -8 -16 6 -28 0 -28 -12 0
-36 -36 -25 -45 13 -5 25 -10 20 -18 -17z"/>
<path d="M621 73 c-22 -57 4 -82 57 -54 28 15 42 15 42 2 0 -46 36 -17 44 35
11 75 -115 90 -143 17z"/>
<path d="M1245 88 c3 -21 -4 -38 -15 -38 -11 0 -19 11 -17 25 4 34 -26 32 -40
-4 -16 -42 34 -74 90 -56 54 18 151 17 171 -2 7 -7 24 -3 39 10 15 12 27 15
27 7 0 -8 14 -4 30 10 34 28 40 60 10 60 -11 0 -21 -16 -21 -35 -2 -30 -4 -30
-17 4 -14 36 -16 35 -30 -10 l-16 -49 -16 50 c-9 28 -17 37 -18 20 -2 -27 -5
-27 -24 0 -16 24 -23 24 -32 4 -7 -20 -17 -17 -37 10 -20 25 -28 28 -28 9 -1
-23 -7 -23 -31 -3 -26 21 -30 19 -25 -12z"/>
<path d="M1630 100 c-33 -8 -49 -16 -35 -18 14 -1 25 -11 25 -21 0 -11 -13
-15 -30 -8 -16 6 -30 1 -30 -12 0 -13 20 -21 45 -18 25 3 56 -1 70 -10 14 -8
40 -7 58 4 19 10 58 11 90 2 34 -9 57 -9 57 2 0 11 -10 19 -22 19 -12 0 -17
15 -10 33 11 27 8 29 -18 7 -24 -20 -30 -20 -30 1 0 16 -18 9 -48 -19 -49 -46
-82 -32 -60 26 7 18 9 31 5 30 -4 -2 -34 -10 -67 -18z"/>
<path d="M1957 107 c-18 -5 -38 -27 -43 -50 -8 -29 -3 -37 17 -29 15 5 33 2
40 -9 7 -12 25 -12 48 0 19 11 41 14 48 7 7 -7 13 -1 13 13 0 21 6 21 30 1 17
-14 30 -16 30 -5 0 11 -13 31 -30 45 -16 14 -30 18 -30 10 0 -8 -15 -3 -34 13
-29 23 -32 23 -21 -7 7 -19 -1 -44 -19 -60 -29 -23 -31 -20 -22 29 6 30 9 54
8 53 -1 -2 -17 -7 -35 -11z"/>
<path d="M2351 105 c-14 -15 -14 -105 0 -105 7 0 29 9 50 21 27 14 39 14 39 0
0 -46 36 -17 44 35 8 54 -91 90 -133 49z"/>
<path d="M2563 102 c-33 -20 -23 -85 14 -98 20 -6 23 3 13 36 -9 29 -5 51 13
62 15 10 18 17 7 17 -11 0 -32 -7 -47 -17z"/>
<path d="M2721 81 c-48 -48 -70 -53 -54 -11 7 17 3 30 -8 30 -23 0 -26 -73 -3
-87 21 -14 55 10 69 47 8 20 12 16 13 -14 2 -37 9 -41 57 -28 30 9 66 12 80 7
30 -10 32 14 3 55 -16 23 -24 24 -31 5 -13 -31 -49 -33 -42 -2 9 41 -42 40
-84 -2z"/>
<path d="M2969 105 c-78 -55 6 -128 88 -77 13 8 38 4 54 -9 17 -14 36 -18 44
-11 8 8 4 20 -7 28 -12 8 -27 31 -35 51 -12 35 -16 34 -50 -8 -38 -48 -94 -38
-75 13 12 32 10 33 -19 13z"/>
</g>
</svg>
