<?xml version="1.0" standalone="no"?>
<!DOCTYPE svg PUBLIC "-//W3C//DTD SVG 20010904//EN"
 "http://www.w3.org/TR/2001/REC-SVG-20010904/DTD/svg10.dtd">
<svg version="1.0" xmlns="http://www.w3.org/2000/svg" width="161.000000pt" height="59.000000pt" viewBox="0 0 161.000000 59.000000" preserveAspectRatio="xMidYMid meet">
    <g transform="translate(0.000000,59.000000) scale(0.100000,-0.100000)" fill="#000000" stroke="none">
        <path d="M133 550 c-49 -25 -89 -69 -111 -120 -14 -35 -14 -152 1 -167 4 -4
72 57 150 135 157 157 159 163 60 169 -45 3 -68 -1 -100 -17z" />
        <path d="M122 307 l-82 -83 35 -34 35 -34 118 117 117 117 -70 0 -70 0 -83
-83z" />
        <path d="M526 378 c-3 -7 -12 -56 -21 -108 -9 -52 -19 -105 -22 -118 -5 -21
-3 -22 66 -22 56 0 71 3 71 15 0 11 -11 15 -40 15 l-41 0 7 38 c9 51 10 52 55
52 28 0 39 4 39 15 0 11 -11 15 -40 15 -39 0 -40 1 -34 28 11 50 13 52 54 52
29 0 40 4 40 15 0 20 -128 22 -134 3z" />
        <path d="M670 375 c0 -10 10 -15 30 -15 36 0 37 -7 11 -133 -9 -48 -15 -89
-13 -92 3 -3 15 -5 28 -5 20 0 23 8 38 93 25 143 22 135 58 139 17 2 33 9 36
16 3 9 -20 12 -92 12 -79 0 -96 -3 -96 -15z" />
        <path d="M874 353 c-3 -21 -14 -77 -23 -126 -9 -48 -15 -90 -12 -92 2 -3 32
-5 67 -5 46 0 63 4 68 15 4 12 -3 15 -34 15 -35 0 -40 3 -40 23 0 53 10 67 50
67 24 0 40 5 44 15 4 12 -3 15 -34 15 -42 0 -47 8 -34 57 5 17 15 23 47 25 22
2 42 9 45 16 3 9 -15 12 -67 12 l-70 0 -7 -37z" />
        <path d="M1092 373 c-91 -45 -117 -189 -41 -228 33 -17 102 -20 130 -5 29 16
24 31 -7 20 -37 -15 -59 -12 -85 8 -43 36 -22 148 35 186 31 20 70 21 86 1 7
-8 16 -15 21 -15 16 0 10 38 -7 44 -29 11 -99 6 -132 -11z" />
        <path d="M1276 361 c-40 -42 -34 -88 17 -120 38 -25 48 -56 25 -79 -19 -19
-55 -14 -71 9 l-15 21 -7 -21 c-10 -32 2 -41 51 -41 60 0 104 40 104 94 0 31
-6 39 -39 60 -22 14 -42 29 -45 35 -20 32 47 68 69 37 15 -20 21 -20 29 1 9
21 -10 33 -55 33 -26 0 -42 -8 -63 -29z" />
        <path d="M1452 269 c-40 -67 -72 -125 -72 -130 0 -24 29 -4 45 31 17 38 20 40
61 40 43 0 44 0 50 -40 6 -36 10 -40 35 -40 34 0 34 -3 10 102 -10 46 -22 100
-25 121 -4 20 -13 37 -20 37 -7 0 -45 -55 -84 -121z m68 -11 c0 -24 -4 -28
-30 -28 l-30 0 21 42 c23 44 39 39 39 -14z" />
        <path d="M208 213 c-72 -73 -70 -83 20 -83 64 0 116 24 160 75 30 33 36 46 30
61 -2 3 -35 6 -75 8 l-72 3 -63 -64z" />
        <path d="M408 83 c222 -2 582 -2 800 0 218 1 37 2 -403 2 -440 0 -619 -1 -397
-2z" />
    </g>
</svg>